<svg width="44" height="44" viewBox="0 0 44 44" fill="none" xmlns="http://www.w3.org/2000/svg">
<rect width="44" height="44" fill="white" fill-opacity="0.2"/>
<path d="M31.6959 30.2168L26.7656 25.2662C28.0332 23.8113 28.7278 21.9807 28.7278 20.075C28.7278 15.6225 24.9757 12 20.3639 12C15.7521 12 12 15.6225 12 20.075C12 24.5275 15.7521 28.15 20.3639 28.15C22.0952 28.15 23.7451 27.6458 25.1557 26.6888L30.1235 31.677C30.3311 31.8852 30.6104 32 30.9097 32C31.193 32 31.4617 31.8957 31.6657 31.7061C32.0992 31.3034 32.113 30.6357 31.6959 30.2168ZM20.3639 14.1065C23.7727 14.1065 26.5459 16.7839 26.5459 20.075C26.5459 23.3661 23.7727 26.0435 20.3639 26.0435C16.9551 26.0435 14.1819 23.3661 14.1819 20.075C14.1819 16.7839 16.9551 14.1065 20.3639 14.1065Z" fill="#181918"/>
</svg>
